<?xml version="1.0" standalone="no"?><!DOCTYPE svg PUBLIC "-//W3C//DTD SVG 1.1//EN" "http://www.w3.org/Graphics/SVG/1.1/DTD/svg11.dtd"><svg t="1540179331847" class="icon" style="" viewBox="0 0 1024 1024" version="1.1" xmlns="http://www.w3.org/2000/svg" p-id="24690" xmlns:xlink="http://www.w3.org/1999/xlink" width="200" height="200"><defs><style type="text/css"></style></defs><path d="M184.32 829.44v-665.6h580.266667v366.933333c18.773333 5.12 35.84 11.946667 51.2 20.48V197.973333c0-47.786667-37.546667-85.333333-85.333334-85.333333h-512c-47.786667 0-85.333333 37.546667-85.333333 85.333333v597.333334c0 47.786667 37.546667 85.333333 85.333333 85.333333h295.253334c-10.24-15.36-18.773333-32.426667-25.6-51.2H184.32z m477.866667-464.213333c0-6.826667-11.946667-11.946667-25.6-11.946667h-324.266667c-13.653333 0-25.6 5.12-25.6 11.946667v8.533333c0 6.826667 11.946667 13.653333 25.6 13.653333h324.266667c13.653333 0 25.6-5.12 25.6-13.653333v-8.533333z m-25.6 122.88h-324.266667c-13.653333 0-25.6 5.12-25.6 11.946666v8.533334c0 6.826667 11.946667 13.653333 25.6 13.653333h324.266667c13.653333 0 25.6-5.12 25.6-13.653333v-8.533334c0-5.12-11.946667-11.946667-25.6-11.946666z m-136.533334 136.533333h-187.733333c-13.653333 0-25.6 5.12-25.6 11.946667v8.533333c0 6.826667 11.946667 13.653333 25.6 13.653333h187.733333c13.653333 0 25.6-5.12 25.6-13.653333v-8.533333c0-5.12-11.946667-11.946667-25.6-11.946667z m213.333334-34.133333c-93.866667 0-170.666667 76.8-170.666667 170.666666s76.8 170.666667 170.666667 170.666667 170.666667-76.8 170.666666-170.666667-76.8-170.666667-170.666666-170.666666z m0 317.44c-80.213333 0-146.773333-64.853333-146.773334-146.773334S631.466667 614.4 713.386667 614.4s146.773333 64.853333 146.773333 146.773333-66.56 146.773333-146.773333 146.773334z m-10.24-100.693334l-66.56-54.613333-18.773334 22.186667 85.333334 68.266666 1.706666 1.706667 5.12-5.12 102.4-102.4-22.186666-17.066667-87.04 87.04z" fill="" p-id="24691"></path></svg>