<?xml version="1.0" standalone="no"?><!DOCTYPE svg PUBLIC "-//W3C//DTD SVG 1.1//EN" "http://www.w3.org/Graphics/SVG/1.1/DTD/svg11.dtd"><svg t="1547540819840" class="icon" style="" viewBox="0 0 1024 1024" version="1.1" xmlns="http://www.w3.org/2000/svg" p-id="18255" xmlns:xlink="http://www.w3.org/1999/xlink" width="200" height="200"><defs><style type="text/css"></style></defs><path d="M789.504 301.568c-13.312 0-24.064 10.752-24.064 24.064l0 28.672 0 92.16 0 385.536c0 26.624-21.504 48.128-48.128 48.128l-409.6 0c-26.624 0-48.128-21.504-48.128-48.128L259.584 445.952l0-92.16 0-28.672c0-13.312-10.752-24.064-24.064-24.064-13.312 0-24.064 10.752-24.064 24.064l0 96.256 0 24.064 0 44.032 0 365.568c0 39.936 32.256 72.192 72.192 72.192l457.728 0c39.936 0 72.192-32.256 72.192-72.192l0-409.6 0-24.064L813.568 325.632C813.568 312.32 802.816 301.568 789.504 301.568z" p-id="18256"></path><path d="M452.096 759.296l0-409.6c0-13.312-10.752-24.064-24.064-24.064-13.312 0-24.064 10.752-24.064 24.064l0 409.6c0 13.312 10.752 24.064 24.064 24.064C441.344 783.36 452.096 772.608 452.096 759.296z" p-id="18257"></path><path d="M379.904 133.12 645.12 133.12c13.312 0 24.064-10.752 24.064-24.064 0-13.312-10.752-24.064-24.064-24.064L379.904 84.992c-13.312 0-24.064 10.752-24.064 24.064C355.84 122.368 366.592 133.12 379.904 133.12z" p-id="18258"></path><path d="M885.76 181.248 139.264 181.248c-13.312 0-24.064 10.752-24.064 24.064 0 13.312 10.752 24.064 24.064 24.064L885.76 229.376c13.312 0 24.064-10.752 24.064-24.064C909.824 192 899.072 181.248 885.76 181.248z" p-id="18259"></path><path d="M621.056 759.296l0-409.6c0-13.312-10.752-24.064-24.064-24.064-13.312 0-24.064 10.752-24.064 24.064l0 409.6c0 13.312 10.752 24.064 24.064 24.064C610.304 783.36 621.056 772.608 621.056 759.296z" p-id="18260"></path></svg>