<?xml version="1.0" standalone="no"?><!DOCTYPE svg PUBLIC "-//W3C//DTD SVG 1.1//EN" "http://www.w3.org/Graphics/SVG/1.1/DTD/svg11.dtd"><svg t="1550020805570" class="icon" style="" viewBox="0 0 1024 1024" version="1.1" xmlns="http://www.w3.org/2000/svg" p-id="8800" xmlns:xlink="http://www.w3.org/1999/xlink" width="200" height="200"><defs><style type="text/css"></style></defs><path d="M886.048 577.12c0-104.416 0-208.8 0-313.216 0-35.2-27.392-52.8-54.784-52.8-27.392 0-54.784 17.6-54.784 52.8 0 69.76 0 139.52 0 209.28 0 12.352-7.872 20.352-15.168 20.352-6.336 0-12.224-5.984-12.224-20.352 0-106.592 0-213.216 0-319.808 0-35.2-27.392-52.8-54.784-52.8-27.392 0-54.784 17.6-54.784 52.8 0 105.888 1.408 142.912 0 248.768-0.192 14.496-8 21.984-15.648 21.984-7.392 0-14.592-7.008-14.624-21.472-0.256-104.544-1.92-149.952-1.984-253.376-0.032-35.264-27.52-52.864-54.976-52.864-27.488 0-54.944 17.632-54.912 52.864 0.064 103.648 2.016 219.36 2.016 323.008 0 12.384-6.752 18.4-13.696 18.4-7.392 0-15.008-6.784-15.008-19.936 0-96.096-1.792-172.8-1.792-269.952 0-30.496-28.256-45.984-56.128-45.984-27.072 0-53.76 14.592-53.952 44.192-0.896 139.2-0.032 311.776-2.496 450.304-37.536-53.6-48.128-90.4-99.84-131.84-10.272-8.224-22.304-11.872-34.336-11.872-43.648 0-87.296 48.064-46.688 99.392 3.328 4.192 57.824 86.048 67.616 100.544 69.536 102.944 60.448 85.12 111.104 154.336 26.112 40.384 112.736 67.744 207.84 67.744 108 0 226.912-35.264 280.64-126.688C883.776 730.688 889.088 641.152 886.048 577.12zM702.688 635.712l-133.472 190.944c-3.296 4.704-8.576 7.296-14.048 7.296-2.272 0-4.576-0.448-6.752-1.408-7.456-3.2-11.648-11.232-9.984-19.168l22.4-108.96-66.24 0c-6.336 0-12.192-3.52-15.136-9.12-2.976-5.632-2.56-12.416 1.024-17.664l129.952-189.92c4.544-6.624 13.088-9.216 20.512-6.208 7.456 3.008 11.808 10.784 10.496 18.688l-18.144 108.544 65.408 0c6.368 0 12.224 3.552 15.168 9.216C706.784 623.68 706.336 630.496 702.688 635.712z" p-id="8801"></path></svg>