<?xml version="1.0" standalone="no"?><!DOCTYPE svg PUBLIC "-//W3C//DTD SVG 1.1//EN" "http://www.w3.org/Graphics/SVG/1.1/DTD/svg11.dtd"><svg t="1547540178254" class="icon" style="" viewBox="0 0 1024 1024" version="1.1" xmlns="http://www.w3.org/2000/svg" p-id="9191" xmlns:xlink="http://www.w3.org/1999/xlink" width="200" height="200"><defs><style type="text/css"></style></defs><path d="M924.88192 615.22432v257.5104c0 33.69472-28.17024 51.33312-58.5728 51.33312H290.42688c-27.66336 0-67.3536 6.48704-92.81536-6.9888-25.22112-13.34784-25.35936-39.86944-25.35936-64.24576V764.3136v-149.08928c0-33.01376-51.2-33.01376-51.2 0v257.5104c0 57.56416 46.73536 100.03456 102.4 102.53312 115.52256 5.18656 232.45824 0 348.07296 0h214.53312c37.08928 0 78.30016 4.66432 114.8416-3.6608 84.72064-19.29728 75.18208-112.26112 75.18208-177.88416v-178.49856c0-33.01376-51.2-33.01376-51.2 0z" p-id="9192"></path><path d="M271.06304 433.42848l259.8912 259.89632c9.86112 9.86624 26.3424 9.86624 36.1984 0l258.90816-258.89792c23.36768-23.36256-12.83584-59.5712-36.1984-36.20352l-258.90816 258.90304h36.1984L307.26656 397.22496c-23.36256-23.36768-59.5712 12.83584-36.20352 36.20352z" p-id="9193"></path><path d="M522.24 172.00128l1.44896 478.6944c0.1024 33.00864 51.3024 33.01888 51.2 0L573.44 172.00128c-0.1024-33.01376-51.3024-33.024-51.2 0z" p-id="9194"></path></svg>