<?xml version="1.0" standalone="no"?><!DOCTYPE svg PUBLIC "-//W3C//DTD SVG 1.1//EN" "http://www.w3.org/Graphics/SVG/1.1/DTD/svg11.dtd"><svg t="1545376359408" class="icon" style="" viewBox="0 0 1024 1024" version="1.1" xmlns="http://www.w3.org/2000/svg" p-id="15633" xmlns:xlink="http://www.w3.org/1999/xlink" width="200" height="200"><defs><style type="text/css"></style></defs><path d="M362.666667 618.666667l85.333333 0 0-42.666667-85.333333 0L362.666667 618.666667zM234.666667 362.666667l85.333333 0 0-42.666667-85.333333 0L234.666667 362.666667zM234.666667 490.666667l85.333333 0 0-42.666667-85.333333 0L234.666667 490.666667zM234.666667 618.666667l85.333333 0 0-42.666667-85.333333 0L234.666667 618.666667zM362.666667 362.666667l85.333333 0 0-42.666667-85.333333 0L362.666667 362.666667zM725.333333 554.666667l42.666667 0 0-64-42.666667 0L725.333333 554.666667zM362.666667 490.666667l85.333333 0 0-42.666667-85.333333 0L362.666667 490.666667zM853.333333 320 597.333333 320 597.333333 192c0-47.125333-38.208-85.333333-85.333333-85.333333L170.666667 106.666667C123.541333 106.666667 85.333333 144.874667 85.333333 192l0 640c0 47.125333 38.208 85.333333 85.333333 85.333333l426.666667 0 341.333333 0L938.666667 405.333333C938.666667 358.208 900.458667 320 853.333333 320zM554.666667 874.666667 170.666667 874.666667c-23.573333 0-42.666667-19.093333-42.666667-42.666667L128 192c0-23.573333 19.093333-42.666667 42.666667-42.666667l341.333333 0c23.573333 0 42.666667 19.093333 42.666667 42.666667L554.666667 874.666667zM896 874.666667 597.333333 874.666667 597.333333 362.666667l256 0c23.573333 0 42.666667 19.093333 42.666667 42.666667L896 874.666667zM725.333333 682.666667l42.666667 0 0-64-42.666667 0L725.333333 682.666667z" p-id="15634"></path></svg>