<?xml version="1.0" standalone="no"?><!DOCTYPE svg PUBLIC "-//W3C//DTD SVG 1.1//EN" "http://www.w3.org/Graphics/SVG/1.1/DTD/svg11.dtd"><svg t="1547540300066" class="icon" style="" viewBox="0 0 1024 1024" version="1.1" xmlns="http://www.w3.org/2000/svg" p-id="13782" xmlns:xlink="http://www.w3.org/1999/xlink" width="200" height="200"><defs><style type="text/css"></style></defs><path d="M511.983627 706.962344c17.665335 0 31.959899-14.309914 31.959899-31.959899L543.943526 543.949666l131.052778 0c17.665335 0 31.959899-14.309914 31.959899-31.959899s-14.294564-31.959899-31.959899-31.959899L543.943526 480.029868 543.943526 348.993462c0-17.649985-14.294564-31.959899-31.959899-31.959899-17.665335 0-31.959899 14.309914-31.959899 31.959899l0 131.037429L349.002672 480.030891c-17.665335 0-31.959899 14.309914-31.959899 31.959899s14.294564 31.959899 31.959899 31.959899l131.022079 0 0 131.052778C480.023728 692.651406 494.318292 706.962344 511.983627 706.962344z" p-id="13783"></path><path d="M956.10875 497.55501c-3.838422-118.630864-53.650921-228.64856-140.259464-309.811068C729.207997 106.596783 616.007819 64.244186 497.564219 67.864644 252.655324 75.839269 59.930951 281.547351 67.889203 526.440897c3.839445 118.615515 53.650921 228.64856 140.260487 309.811068 83.019809 77.776388 190.259228 120.098285 303.459407 120.098285 4.931313 0 9.893324-0.077771 14.824637-0.234337 17.665335-0.577145 31.491225-15.340383 30.898731-32.989345-0.592494-17.648962-16.916275-31.631418-32.958646-30.898731-101.71459 3.38612-198.342324-33.129538-272.499277-102.620215s-116.820636-163.683966-120.128985-265.258363c-6.803963-209.655997 158.236907-385.777227 367.878578-392.59654 211.17049-6.66377 385.824299 158.25328 392.628262 367.878578 4.619204 142.928247-70.098521 275.042193-195.065697 344.782557-15.418154 8.598842-20.941961 28.058033-12.32777 43.476187 8.582469 15.402805 28.058033 20.941961 43.476187 12.32777C874.274954 818.773895 961.539436 664.484903 956.10875 497.55501z" p-id="13784"></path></svg>