<?xml version="1.0" standalone="no"?><!DOCTYPE svg PUBLIC "-//W3C//DTD SVG 1.1//EN" "http://www.w3.org/Graphics/SVG/1.1/DTD/svg11.dtd"><svg t="1545376364125" class="icon" style="" viewBox="0 0 1024 1024" version="1.1" xmlns="http://www.w3.org/2000/svg" p-id="15748" xmlns:xlink="http://www.w3.org/1999/xlink" width="200" height="200"><defs><style type="text/css"></style></defs><path d="M158.279375 174.012196 90.535481 174.012196c-15.803941 0-28.146037 12.482289-28.146037 27.900443 0 15.520485 12.598946 27.901467 28.146037 27.901467l67.743894 0c15.790638 0 28.145014-12.483312 28.145014-27.901467C186.424388 186.392154 173.825442 174.012196 158.279375 174.012196z" p-id="15749"></path><path d="M158.279375 484.086254 90.535481 484.086254c-15.803941 0-28.146037 12.483312-28.146037 27.901467 0 15.520485 12.598946 27.926026 28.146037 27.926026l67.743894 0c15.790638 0 28.145014-12.508895 28.145014-27.926026C186.424388 496.466212 173.825442 484.086254 158.279375 484.086254z" p-id="15750"></path><path d="M158.279375 794.160311 90.535481 794.160311c-15.803941 0-28.146037 12.509918-28.146037 27.901467 0 15.520485 12.598946 27.927049 28.146037 27.927049l67.743894 0c15.790638 0 28.145014-12.509918 28.145014-27.927049C186.424388 806.54027 173.825442 794.160311 158.279375 794.160311z" p-id="15751"></path><path d="M307.461045 229.813083l626.13241 0c15.597233 0 28.016077-12.483312 28.016077-27.901467 0-15.520485-12.547781-27.900443-28.016077-27.900443L307.461045 174.011172c-15.598256 0-28.0171 12.482289-28.0171 27.900443C279.443945 217.433124 291.978423 229.813083 307.461045 229.813083z" p-id="15752"></path><path d="M933.593456 484.086254 307.461045 484.086254c-15.598256 0-28.0171 12.483312-28.0171 27.901467 0 15.520485 12.534478 27.926026 28.0171 27.926026l626.13241 0c15.597233 0 28.016077-12.508895 28.016077-27.926026C961.609533 496.466212 949.061752 484.086254 933.593456 484.086254z" p-id="15753"></path><path d="M933.593456 794.160311 307.461045 794.160311c-15.598256 0-28.0171 12.509918-28.0171 27.901467 0 15.520485 12.534478 27.927049 28.0171 27.927049l626.13241 0c15.597233 0 28.016077-12.509918 28.016077-27.927049C961.609533 806.54027 949.061752 794.160311 933.593456 794.160311z" p-id="15754"></path></svg>