<?xml version="1.0" standalone="no"?><!DOCTYPE svg PUBLIC "-//W3C//DTD SVG 1.1//EN" "http://www.w3.org/Graphics/SVG/1.1/DTD/svg11.dtd"><svg t="1547540941943" class="icon" style="" viewBox="0 0 1024 1024" version="1.1" xmlns="http://www.w3.org/2000/svg" p-id="21620" xmlns:xlink="http://www.w3.org/1999/xlink" width="200" height="200"><defs><style type="text/css"></style></defs><path d="M393.841 0c-19.262 0-34.889 15.604-34.889 34.889v869.407L138.92 684.265c-13.628-13.629-35.707-13.606-49.335 0-13.605 13.628-13.628 35.706 0 49.357l279.612 279.589c0.022 0.022 0.045 0.022 0.068 0.045a34.805 34.805 0 0 0 11.266 7.496c0.272 0.091 0.522 0.137 0.795 0.228 3.816 1.476 7.927 2.362 12.266 2.407 0.182 0 0.364-0.022 0.545-0.022 4.293-0.022 8.381-0.909 12.175-2.362 0.295-0.113 0.59-0.159 0.909-0.272a35.124 35.124 0 0 0 11.016-7.314c0.091-0.091 0.205-0.113 0.295-0.204s0.114-0.204 0.182-0.296a34.762 34.762 0 0 0 7.359-11.062c0.091-0.25 0.136-0.499 0.227-0.749 1.5-3.885 2.408-8.063 2.408-12.471 0-0.045 0.023-0.091 0.023-0.136V34.889C428.73 15.604 413.103 0 393.841 0zM932.258 289.901L652.646 10.29c-0.023-0.045-0.046-0.045-0.068-0.045a35.188 35.188 0 0 0-11.267-7.496c-0.272-0.091-0.522-0.136-0.795-0.227A34.373 34.373 0 0 0 628.25 0.114h-0.545c-4.293 0.045-8.382 0.908-12.175 2.362-0.295 0.137-0.591 0.182-0.908 0.318-4.135 1.681-7.859 4.179-11.017 7.269-0.091 0.091-0.205 0.136-0.296 0.227s-0.113 0.182-0.182 0.272c-3.111 3.18-5.633 6.905-7.359 11.084-0.091 0.227-0.136 0.5-0.227 0.727-1.499 3.907-2.408 8.086-2.408 12.493 0 0.045-0.022 0.091-0.022 0.136v953.631c0 19.262 15.627 34.89 34.889 34.89s34.89-15.628 34.89-34.89V119.227l220.031 220.01c13.629 13.628 35.707 13.628 49.336 0 13.606-13.63 13.629-35.708 0.001-49.336z" p-id="21621"></path></svg>