<?xml version="1.0" standalone="no"?><!DOCTYPE svg PUBLIC "-//W3C//DTD SVG 1.1//EN" "http://www.w3.org/Graphics/SVG/1.1/DTD/svg11.dtd"><svg t="1550715887224" class="icon" style="" viewBox="0 0 1024 1024" version="1.1" xmlns="http://www.w3.org/2000/svg" p-id="4927" xmlns:xlink="http://www.w3.org/1999/xlink" width="200" height="200"><defs><style type="text/css"></style></defs><path d="M843.126 282.243l10.478-31.436c7.8-23.403 5.938-48.435-5.123-70.44s-30.039-38.422-53.44-46.223L427.82 12.36c-23.518-7.8-48.55-6.054-70.44 5.123-22.005 11.06-38.421 30.039-46.222 53.441-1.28 3.842-1.63 7.684-1.397 11.41l-3.61-0.815c-23.984-5.821-48.783-1.98-69.857 10.712-21.074 12.807-35.977 33.066-41.798 56.934l-34.58 141.345c-40.983 20.725-69.159 63.221-69.159 112.122V887.56c0 69.159 56.236 125.51 125.511 125.51h591.462c69.16 0 125.511-56.351 125.511-125.51V402.63c0-56.933-38.072-105.019-90.116-120.387zM367.162 89.435c2.794-8.499 8.732-15.252 16.65-19.327 8.033-3.958 17.114-4.54 25.38-1.746l367.22 121.785c8.382 2.794 15.252 8.732 19.327 16.65 3.958 7.917 4.657 16.998 1.746 25.381l-14.903 44.942h-31.436c3.377-21.423-0.815-43.196-12.341-62.057-12.808-21.074-32.95-35.977-56.934-41.798L364.25 95.606c1.164-1.863 2.212-3.958 2.91-6.17z m-115.266 73.7c2.096-8.615 7.452-15.95 15.136-20.608 7.568-4.54 16.65-5.938 25.15-3.842l375.717 91.98c8.616 2.095 15.95 7.45 20.608 15.135 4.657 7.568 5.938 16.533 3.842 25.149-0.465 2.096-0.815 4.191-0.815 6.287h-467.58l27.942-114.1z m622.316 724.541c0 36.675-29.806 66.481-66.481 66.481H216.269c-36.675 0-66.481-29.806-66.481-66.48V402.63c0-36.676 29.806-66.481 66.481-66.481h591.462c36.675 0 66.481 29.805 66.481 66.48v485.046z" p-id="4928"></path><path d="M589.076 494.028l-62.639 121.669c-6.054 11.876-10.944 21.656-14.437 29.456a338.297 338.297 0 0 0-13.39-27.36L432.48 494.028h-54.606l90.932 167.426h-73.35v43.66h92.793v25.033h-92.794v41.449h92.794v76.494h49.134v-76.494h92.328v-41.449h-92.328v-25.032h92.328v-43.661h-73.467l90.582-167.426h-57.749z" p-id="4929"></path></svg>