<?xml version="1.0" standalone="no"?><!DOCTYPE svg PUBLIC "-//W3C//DTD SVG 1.1//EN" "http://www.w3.org/Graphics/SVG/1.1/DTD/svg11.dtd"><svg t="1562306830812" class="icon" viewBox="0 0 1024 1024" version="1.1" xmlns="http://www.w3.org/2000/svg" p-id="1630" xmlns:xlink="http://www.w3.org/1999/xlink" width="200" height="200"><defs><style type="text/css"></style></defs><path d="M170.558026 149.724023l685.948751 0c92.12621 0 167.471223 75.370595 167.471223 167.447686l0 391.068743c0 92.078115-75.345012 167.447686-167.471223 167.447686L170.558026 875.688139c-92.100628 0-167.447686-75.368548-167.447686-167.447686L3.110339 317.17171C3.111362 225.094618 78.457398 149.724023 170.558026 149.724023L170.558026 149.724023zM46.127062 321.949526 980.985836 321.949526l0-0.808412c0-66.415642-54.344722-120.740922-120.761388-120.740922L166.86696 200.400193c-66.416666 0-120.739898 54.325279-120.739898 120.740922L46.127062 321.949526 46.127062 321.949526zM980.985836 411.187967 46.127062 411.187967l0 293.080012c0 66.417689 54.323233 120.739898 120.739898 120.739898l693.357488 0c66.415642 0 120.761388-54.32221 120.761388-120.739898L980.985836 411.187967z" p-id="1631"></path><path d="M128.428509 605.003184l340.705706 0 0 45.440935-340.705706 0 0-45.440935Z" p-id="1632"></path><path d="M128.428509 523.658528l170.351829 0 0 45.418422-170.351829 0 0-45.418422Z" p-id="1633"></path></svg>