<?xml version="1.0" standalone="no"?><!DOCTYPE svg PUBLIC "-//W3C//DTD SVG 1.1//EN" "http://www.w3.org/Graphics/SVG/1.1/DTD/svg11.dtd"><svg t="1553225455554" class="icon" style="" viewBox="0 0 1024 1024" version="1.1" xmlns="http://www.w3.org/2000/svg" p-id="11054" xmlns:xlink="http://www.w3.org/1999/xlink" width="200" height="200"><defs><style type="text/css"></style></defs><path d="M836.16 321.92c-30.336 0-58.368 8.512-83.2 22.336l-78.144-61.12A171.776 171.776 0 1 0 359.68 188.928a171.52 171.52 0 0 0 141.312 168.64v272.256a170.368 170.368 0 0 0-58.944 22.656L323.264 559.488c22.4-28.992 36.416-65.024 36.416-104.576a171.84 171.84 0 1 0-171.84 171.776c32.896 0 63.296-9.6 89.344-25.728l118.848 92.864a170.176 170.176 0 0 0-36.416 104.768 171.84 171.84 0 0 0 343.552 0 171.52 171.52 0 0 0-141.312-168.768V357.568a168.512 168.512 0 0 0 70.336-30.272l72.768 56.768a170.112 170.112 0 0 0-40.576 109.632 171.84 171.84 0 1 0 171.776-171.776z" p-id="11055"></path></svg>