<?xml version="1.0" standalone="no"?><!DOCTYPE svg PUBLIC "-//W3C//DTD SVG 1.1//EN" "http://www.w3.org/Graphics/SVG/1.1/DTD/svg11.dtd"><svg t="1550715930469" class="icon" style="" viewBox="0 0 1024 1024" version="1.1" xmlns="http://www.w3.org/2000/svg" p-id="6255" xmlns:xlink="http://www.w3.org/1999/xlink" width="200" height="200"><defs><style type="text/css"></style></defs><path d="M991.74054031 992H122.81081094A90.81081094 90.81081094 0 0 1 32 901.18918906v-778.37837812A90.81081094 90.81081094 0 0 1 122.81081094 32h778.37837812A90.81081094 90.81081094 0 0 1 992 122.81081094V992zM122.55135125 109.83783781a12.97297312 12.97297312 0 0 0-12.97297312 12.97297313v778.37837812a12.97297312 12.97297312 0 0 0 12.97297312 12.97297313h791.35135125V122.81081094a12.97297312 12.97297312 0 0 0-12.97297312-12.97297313H122.81081094z" p-id="6256"></path><path d="M278.74594625 278.48648656m-51.8918925 0a51.89189156 51.89189156 0 1 0 103.78378406 0 51.89189156 51.89189156 0 1 0-103.78378406 0Z" p-id="6257"></path><path d="M278.74594625 512m-51.8918925 0a51.89189156 51.89189156 0 1 0 103.78378406 0 51.89189156 51.89189156 0 1 0-103.78378406 0Z" p-id="6258"></path><path d="M278.74594625 745.51351344m-51.8918925 0a51.89189156 51.89189156 0 1 0 103.78378406 0 51.89189156 51.89189156 0 1 0-103.78378406 0Z" p-id="6259"></path><path d="M408.21621594 252.54054031h363.24324375v77.83783782h-363.24324375zM408.21621594 486.05405375h363.24324375v77.83783781h-363.24324375zM408.21621594 719.56756719h363.24324375v77.83783781h-363.24324375z" p-id="6260"></path></svg>