<?xml version="1.0" standalone="no"?><!DOCTYPE svg PUBLIC "-//W3C//DTD SVG 1.1//EN" "http://www.w3.org/Graphics/SVG/1.1/DTD/svg11.dtd"><svg t="1553225444496" class="icon" style="" viewBox="0 0 1024 1024" version="1.1" xmlns="http://www.w3.org/2000/svg" p-id="10811" xmlns:xlink="http://www.w3.org/1999/xlink" width="200" height="200"><defs><style type="text/css"></style></defs><path d="M875.64 813h-4V429.17A117.17 117.17 0 0 0 754.42 312H592.81a38.46 38.46 0 0 0-4 0.22v-64.87A117.17 117.17 0 0 0 471.6 130.18h-202a117.17 117.17 0 0 0-117.2 117.17v557.58c0 2.86 1 5.4 1.64 8.08h-5.68C128.28 813 112 831.1 112 853.41s16.28 40.41 36.36 40.41h727.28c20.08 0 36.36-18.09 36.36-40.41S895.72 813 875.64 813z m-652.14 0c0.63-2.68 1.63-5.22 1.63-8.08V247.35a44.45 44.45 0 0 1 44.45-44.44h202A44.44 44.44 0 0 1 516 247.35v557.58c0 2.86 1 5.4 1.63 8.08z m575.37 0H587.14c0.62-2.68 1.63-5.22 1.63-8.08V384.51a38.46 38.46 0 0 0 4 0.22h161.65a44.45 44.45 0 0 1 44.45 44.44z" p-id="10812"></path><path d="M431.19 308H310a40.41 40.41 0 0 0 0 80.81h121.19a40.41 40.41 0 1 0 0-80.81zM431.19 469.58H310a40.4 40.4 0 0 0 0 80.8h121.19a40.4 40.4 0 1 0 0-80.8zM431.19 631.19H310a40.41 40.41 0 0 0 0 80.81h121.19a40.41 40.41 0 1 0 0-80.81zM693.82 469.58h-20.2a40.4 40.4 0 1 0 0 80.8h20.2a40.4 40.4 0 0 0 0-80.8zM693.82 631.19h-20.2a40.41 40.41 0 1 0 0 80.81h20.2a40.41 40.41 0 0 0 0-80.81z" p-id="10813"></path></svg>