<?xml version="1.0" standalone="no"?><!DOCTYPE svg PUBLIC "-//W3C//DTD SVG 1.1//EN" "http://www.w3.org/Graphics/SVG/1.1/DTD/svg11.dtd"><svg t="1553225459742" class="icon" style="" viewBox="0 0 1024 1024" version="1.1" xmlns="http://www.w3.org/2000/svg" p-id="11172" xmlns:xlink="http://www.w3.org/1999/xlink" width="200" height="200"><defs><style type="text/css"></style></defs><path d="M744.8 0 279.3 0c-51.4 0-93.1 41.7-93.1 93.1l0 837.7c0 51.4 41.7 93.1 93.1 93.1l465.3 0c51.4 0 93.1-41.7 93.1-93.1L837.7 93C837.8 41.5 796.1 0 744.8 0zM302.7 46.5l418.9 0c38.6 0 69.7 31.3 69.7 69.7L232.8 116.2C232.8 77.8 264.1 46.5 302.7 46.5zM791.3 162.9l0 581.7L232.8 744.6 232.8 162.9 791.3 162.9zM721.4 977.2 302.7 977.2c-38.6 0-69.7-31.3-69.7-69.7L233 791.1l558.5 0 0 116.4C791.3 945.9 760.1 977.2 721.4 977.2z" p-id="11173"></path><path d="M512.1 884m-46.5 0a46.5 46.5 0 1 0 93 0 46.5 46.5 0 1 0-93 0Z" p-id="11174"></path></svg>