<?xml version="1.0" standalone="no"?><!DOCTYPE svg PUBLIC "-//W3C//DTD SVG 1.1//EN" "http://www.w3.org/Graphics/SVG/1.1/DTD/svg11.dtd"><svg t="1550715856553" class="icon" style="" viewBox="0 0 1024 1024" version="1.1" xmlns="http://www.w3.org/2000/svg" p-id="4193" xmlns:xlink="http://www.w3.org/1999/xlink" width="200" height="200"><defs><style type="text/css"></style></defs><path d="M255.09888 32.44032c-122.97216 0-222.6688 99.69664-222.6688 222.6688 0 122.96192 99.69664 222.62784 222.6688 222.62784l222.6688 0L477.76768 255.10912C477.75744 132.13696 378.0608 32.44032 255.09888 32.44032L255.09888 32.44032 255.09888 32.44032zM409.22112 409.23136 255.09888 409.23136c-84.98176 0-154.13248-69.15072-154.13248-154.12224 0-85.01248 69.15072-154.15296 154.13248-154.15296 85.00224 0 154.12224 69.15072 154.12224 154.15296L409.22112 409.23136 409.22112 409.23136 409.22112 409.23136zM991.56992 255.10912c0-122.97216-99.69664-222.6688-222.6688-222.6688-122.96192 0-222.6688 99.69664-222.6688 222.6688l0 222.62784 222.6688 0C891.87328 477.7472 991.56992 378.07104 991.56992 255.10912L991.56992 255.10912 991.56992 255.10912zM614.77888 255.10912c0-85.01248 69.12-154.15296 154.12224-154.15296 84.97152 0 154.12224 69.15072 154.12224 154.15296 0 84.97152-69.15072 154.12224-154.12224 154.12224L614.77888 409.23136 614.77888 255.10912 614.77888 255.10912 614.77888 255.10912zM32.43008 768.89088c0 122.99264 99.69664 222.6688 222.6688 222.6688 122.96192 0 222.6688-99.67616 222.6688-222.6688L477.76768 546.2528 255.09888 546.2528C132.12672 546.2528 32.43008 645.92896 32.43008 768.89088L32.43008 768.89088 32.43008 768.89088zM409.22112 768.89088c0 85.01248-69.12 154.15296-154.12224 154.15296-84.98176 0-154.13248-69.14048-154.13248-154.15296 0-84.97152 69.15072-154.12224 154.13248-154.12224l154.12224 0L409.22112 768.89088 409.22112 768.89088 409.22112 768.89088zM768.91136 546.2528 546.24256 546.2528l0 222.63808c0 122.96192 99.70688 222.6688 222.6688 222.6688 122.96192 0 222.6688-99.70688 222.6688-222.6688C991.56992 645.92896 891.87328 546.2528 768.91136 546.2528L768.91136 546.2528 768.91136 546.2528zM768.91136 923.04384c-85.00224 0-154.12224-69.14048-154.12224-154.15296L614.78912 614.76864l154.12224 0c84.97152 0 154.12224 69.15072 154.12224 154.12224C923.0336 853.90336 853.88288 923.04384 768.91136 923.04384L768.91136 923.04384 768.91136 923.04384zM768.91136 923.04384" p-id="4194"></path></svg>