<?xml version="1.0" standalone="no"?><!DOCTYPE svg PUBLIC "-//W3C//DTD SVG 1.1//EN" "http://www.w3.org/Graphics/SVG/1.1/DTD/svg11.dtd"><svg t="1550715786563" class="icon" style="" viewBox="0 0 1024 1024" version="1.1" xmlns="http://www.w3.org/2000/svg" p-id="3421" xmlns:xlink="http://www.w3.org/1999/xlink" width="200" height="200"><defs><style type="text/css"></style></defs><path d="M555.008 614.4c4.096 0 13.312-4.096 13.312-4.096l84.992-84.992c4.096-4.096 4.096-8.192 4.096-13.312 0-13.312-8.192-21.504-21.504-21.504-4.096 0-13.312 4.096-13.312 4.096l-84.992 84.992c-4.096 4.096-4.096 8.192-4.096 13.312C533.504 606.208 541.696 614.4 555.008 614.4zM242.688 179.2c-33.792 0-64.512 29.696-64.512 64.512s29.696 64.512 64.512 64.512 64.512-29.696 64.512-64.512C303.104 204.8 277.504 179.2 242.688 179.2zM242.688 260.096c-13.312 0-21.504-8.192-21.504-21.504s8.192-21.504 21.504-21.504c13.312 0 21.504 8.192 21.504 21.504C260.096 251.904 251.904 260.096 242.688 260.096zM533.504 801.792c4.096 0 13.312-4.096 13.312-4.096l123.904-123.904c4.096-4.096 4.096-8.192 4.096-13.312 0-13.312-8.192-21.504-21.504-21.504-4.096 0-13.312 4.096-13.312 4.096L516.096 768C512 772.096 512 776.192 512 780.288 512 793.6 520.192 801.792 533.504 801.792zM435.2 683.008c-4.096 4.096-4.096 8.192-4.096 13.312 0 12.288 8.192 21.504 21.504 21.504 4.096 0 13.312-4.096 13.312-4.096l43.008-43.008C512 665.6 512 661.504 512 657.408c0-13.312-8.192-21.504-21.504-21.504-4.096 0-13.312 4.096-13.312 4.096L435.2 683.008zM964.608 516.096 507.904 59.392c-4.096-4.096-8.192-4.096-13.312-4.096L115.712 55.296C80.896 55.296 51.2 84.992 51.2 119.808l0 375.808c0 4.096 4.096 13.312 4.096 13.312L512 964.608c4.096 4.096 8.192 4.096 13.312 4.096s13.312-4.096 13.312-4.096l417.792-417.792c4.096-4.096 4.096-8.192 4.096-13.312C968.704 529.408 968.704 520.192 964.608 516.096zM533.504 921.6 94.208 482.304 94.208 179.2l0-4.096 0-59.392c0-13.312 8.192-21.504 21.504-21.504l59.392 0 4.096 0 303.104 0 435.2 435.2L533.504 921.6z" p-id="3422"></path></svg>