<?xml version="1.0" standalone="no"?><!DOCTYPE svg PUBLIC "-//W3C//DTD SVG 1.1//EN" "http://www.w3.org/Graphics/SVG/1.1/DTD/svg11.dtd"><svg t="1561543561682" class="icon" viewBox="0 0 1024 1024" version="1.1" xmlns="http://www.w3.org/2000/svg" p-id="2058" xmlns:xlink="http://www.w3.org/1999/xlink" width="200" height="200"><defs><style type="text/css"></style></defs><path d="M820.928466 928.484599l-51.310619 0c-28.339442 0-51.306526-23.305799-51.306526-52.054563L718.311321 564.05968c0-28.750811 22.966061-52.060703 51.306526-52.060703l51.310619 0c28.337395 0 51.308573 23.309892 51.308573 52.060703l0 312.370357C872.237039 905.178801 849.266885 928.484599 820.928466 928.484599zM769.61887 850.394057c0 14.380522 0 3.441379 0 4.447289C769.61887 861.048721 769.61887 850.394057 769.61887 850.394057zM564.383556 928.484599l-51.306526 0c-28.339442 0-51.311643-23.305799-51.311643-52.054563L461.765387 147.574057c0-28.752858 22.971178-52.058656 51.311643-52.058656l51.306526 0c28.338419 0 51.310619 23.305799 51.310619 52.058656l0 728.85598C615.694175 905.178801 592.722998 928.484599 564.383556 928.484599zM307.837622 928.484599l-51.306526 0c-28.338419 0-51.310619-23.305799-51.310619-52.054563L205.220477 381.850801c0-28.754904 22.971178-52.063773 51.310619-52.063773l51.306526 0c28.339442 0 51.310619 23.309892 51.310619 52.063773l0 494.579235C359.148241 905.178801 336.177064 928.484599 307.837622 928.484599z" p-id="2059"></path></svg>